# xmcd
#
# Track frame offsets:
#	182
#	13082
#	26507
#	36632
#	47732
#	60682
#	72357
#	85732
#	96782
#	107032
#	118907
#	129607
#	140707
#	151382
#	160982
#	172357
#	182907
#	194307
#
# Disc length: 2723 seconds
#
# Revision: 1
# Processed by: cddbd v1.5.1PL0 Copyright (c) Steve Scherf et al.
# Submitted via: audiograbber 1.83.01
#
DISCID=0d0aa112
DTITLE=Bob and Earl - The Olympics - Dancetime
DYEAR=1900
DGENRE=Soul
TTITLE0=Bob and Earl - Baby, Your Time Is Mine 
TTITLE1=Bob and Earl - Big Brother
TTITLE2=Bob and Earl - Land Of 1000 Dances
TTITLE3=Bob and Earl - I Can't Get Away
TTITLE4=Bob and Earl - My Little Girl
TTITLE5=Bob and Earl - I'll Keep Running Back
TTITLE6=Bob and Earl - Dancin'everywhere
TTITLE7=Bob and Earl - Send For Me, I'll Be There
TTITLE8=Bob and Earl - Ooh Honey Babe
TTITLE9=Bob and Earl - Harlem Shuffle
TTITLE10=The Olympics - The Bounce
TTITLE11=The Olympics - Mine Exclusively
TTITLE12=The Olympics - Baby Do The Philly Dog
TTITLE13=The Olympics - The Duck
TTITLE14=The Olympics - Secret Agents
TTITLE15=The Olympics - We Go Together (Pretty Baby)
TTITLE16=The Olympics - I'll Do A Little Bit More
TTITLE17=The Olympics - The Same Old Thing
EXTD=
EXTT0=
EXTT1=
EXTT2=
EXTT3=
EXTT4=
EXTT5=
EXTT6=
EXTT7=
EXTT8=
EXTT9=
EXTT10=
EXTT11=
EXTT12=
EXTT13=
EXTT14=
EXTT15=
EXTT16=
EXTT17=
PLAYORDER=
